# xmcd CD database file
#
# Track frame offsets:
#	150
#	19925
#	44380
#	67617
#	93212
#	111230
#	139900
#	165260
#	191605
#	212057
#
# Disc length: 3268 seconds
#
# Revision: 1
# Processed by: cddbd v1.5.2PL0 Copyright (c) Steve Scherf et al.
# Submitted via: CDex 1.81
#
DISCID=7f0cc20a
DTITLE=Great Jazz Trio (Hank Jones) - Flowers for Lady Day
DYEAR=1991
DGENRE=Jazz
TTITLE0=Sometimes I'm Happy
TTITLE1=I'll Never Smile Again
TTITLE2=Love Me or Leave Me
TTITLE3=You Don't Know What Love Is
TTITLE4=Baby, Won't You Please Come Home
TTITLE5=Lover Man
TTITLE6=Easy Living
TTITLE7=I'm a Fool to Want You
TTITLE8=Time Warp
TTITLE9=Don't Explain
EXTD=YEAR: 1991
EXTT0=
EXTT1=
EXTT2=
EXTT3=
EXTT4=
EXTT5=
EXTT6=
EXTT7=
EXTT8=
EXTT9=
PLAYORDER=
